<svg xmlns="http://www.w3.org/2000/svg" viewBox="0 0 373.92 204.26"><defs><style>.cls-1{fill:#f0d0c7;}.cls-2{fill:#bfbbb8;}.cls-3{fill:#c16a2f;}.cls-4{fill:#d97938;}.cls-5{fill:#152d40;}.cls-6{fill:#0e202d;}.cls-7{fill:#2d2214;}.cls-8{fill:#29496b;}.cls-9{fill:#a9402c;}.cls-10{fill:#bc5446;}.cls-11{fill:#fcf1d1;}.cls-12{fill:#372b19;}.cls-13{fill:#913023;}.cls-14{fill:#c17638;}.cls-15{fill:#e1964f;}.cls-16{fill:#151a25;}.cls-17{fill:#b2bfe1;}.cls-18{fill:#eff5e1;}.cls-19{fill:#9fafd3;}.cls-20{fill:#2867a4;}.cls-21{fill:#fef6d4;}.cls-22{fill:#ef9a60;}</style></defs><g id="Layer_2" data-name="Layer 2"><g id="OBJECT"><path class="cls-1" d="M32.64,37.35S92.51-7.4,151.17,1.07s107,50.19,166.31,48.38,67.12,56.84,45.35,85.26-202,3-292.69,3.63S-12.11,69.4,32.64,37.35Z"/><ellipse class="cls-2" cx="174.76" cy="192.24" rx="171.44" ry="12.02"/><rect class="cls-3" x="143.25" y="31" width="97.44" height="100.59"/><rect class="cls-4" x="239.91" y="31" width="97.44" height="100.59"/><path class="cls-5" d="M56.47,184.32a31.71,31.71,0,0,0,6.37-18.57,31.3,31.3,0,0,0-6.6-20.5l-.05-8.59-15.95-.39v.43l-.4,0c-13.12-.35-24.09,12.11-24.51,27.82s9.89,28.73,23,29.07c.45,0,.91,0,1.36,0l16.83,0Z"/><ellipse class="cls-6" cx="56.48" cy="165.16" rx="28.46" ry="23.77" transform="translate(-110.12 217.28) rotate(-88.49)"/><path class="cls-5" d="M235.75,182.17a30.36,30.36,0,0,0,6.09-17.75,30,30,0,0,0-6.31-19.6l-.05-8.2-15.25-.38v.41l-.38,0c-12.54-.33-23,11.58-23.42,26.59s9.45,27.47,22,27.8c.44,0,.87,0,1.3,0l16.09,0Z"/><ellipse class="cls-6" cx="235.75" cy="163.86" rx="27.2" ry="22.72" transform="translate(65.74 395.22) rotate(-88.49)"/><rect class="cls-7" x="124.77" y="145.31" width="151.82" height="24.05"/><path class="cls-6" d="M312.68,185.86A35.66,35.66,0,0,0,319.85,165a35.23,35.23,0,0,0-7.42-23.07l-.06-9.66-17.95-.45v.49l-.45,0c-14.76-.39-27.11,13.63-27.58,31.31s11.13,32.33,25.89,32.72c.52,0,1,0,1.54,0l18.94,0Z"/><ellipse class="cls-5" cx="312.69" cy="164.31" rx="32.02" ry="26.74" transform="translate(140.21 472.57) rotate(-88.49)"/><path class="cls-8" d="M329.42,164.2c-.25,9.65-7,17.31-15.05,17.09s-14.4-8.21-14.14-17.86,7-17.31,15.06-17.09S329.68,154.55,329.42,164.2Z"/><path class="cls-9" d="M315.73,137.88c8.55.22,16,5.23,20.72,12.83a10.37,10.37,0,0,0-5.63-19.08H233.23a10.37,10.37,0,0,1-10.35-10.84L225.65,60A10.36,10.36,0,0,0,215.3,49.12H102.71A10.38,10.38,0,0,0,93.9,54L69.68,92.93a10.32,10.32,0,0,1-4,3.71L24.38,118.3a10.39,10.39,0,0,0-5.47,7.81L17,140.63a10.37,10.37,0,0,0,10.28,11.75H117c4.35-10.82,14.42-18.39,26.15-18.39s21.8,7.57,26.15,18.39H292.64C297.6,143.44,306.15,137.62,315.73,137.88Z"/><rect class="cls-5" x="42.73" y="162.75" width="68.13" height="12.49"/><path class="cls-6" d="M145,187.35a35.8,35.8,0,0,0,7.17-20.89,35.29,35.29,0,0,0-7.43-23.07l-.06-9.66-17.95-.44v.48l-.45,0c-14.76-.39-27.11,13.62-27.57,31.3s11.12,32.33,25.89,32.72c.51,0,1,0,1.53,0l18.94.05Z"/><path class="cls-10" d="M169.31,152.38C165,141.56,154.89,134,143.16,134s-21.8,7.57-26.15,18.39L94.59,154S100,145.24,101,143c3.12-7.29,8.25-15.56,25-19.57S162.46,122,169.31,152.38Z"/><polygon class="cls-11" points="174.75 55.88 156.2 93.28 112.18 92.93 108.69 92.91 104.67 92.88 95.92 92.8 90.78 92.76 88.09 92.75 77.93 92.66 99.31 55.88 174.75 55.88"/><path class="cls-11" d="M165.24,93.6l17.91-37.67h31.36a5.64,5.64,0,0,1,5.64,6l-1.89,30.75Z"/><path class="cls-9" d="M163.9,91.56l2.52-5.5h6.13s1.26-5.19,6.44-6.13,8.8-.47,9.9,4.08-4.71,8.49-12.26,7.39A36.67,36.67,0,0,0,163.9,91.56Z"/><path class="cls-12" d="M110.39,168.41h-91a9.67,9.67,0,0,1-9.67-9.66h0a9.67,9.67,0,0,1,9.67-9.67h91a9.66,9.66,0,0,1,9.66,9.67h0A9.66,9.66,0,0,1,110.39,168.41Z"/><rect class="cls-7" x="91.29" y="149.08" width="28.76" height="19.33" rx="4.94"/><path class="cls-5" d="M20.18,139l1.23-10.61a5.54,5.54,0,0,1,5.49-4.89H83.12a5.53,5.53,0,0,1,5.5,6.09L87.56,139.9a5.52,5.52,0,0,1-5.47,5l-56.39.26A5.53,5.53,0,0,1,20.18,139Z"/><ellipse class="cls-5" cx="144.99" cy="165.8" rx="32.02" ry="26.74" transform="translate(-24.57 306.38) rotate(-88.49)"/><ellipse class="cls-8" cx="147.13" cy="165.31" rx="17.48" ry="14.6" transform="translate(-22 308.03) rotate(-88.49)"/><path class="cls-10" d="M93.89,128.81c.7.23,40.54-24.76,66-26.88l-4-5.42s-29.71,6.36-62.24,30.17Z"/><path class="cls-10" d="M31.83,120.18l55.22.3,5-3.58-55.56.28L70.7,98.32l-3.14-.79L31.27,118A1.15,1.15,0,0,0,31.83,120.18Z"/><path class="cls-13" d="M165,95.17l-.31,39.92S171.92,102.87,165,95.17Z"/><ellipse class="cls-11" cx="31.53" cy="133.99" rx="7.43" ry="7.78"/><ellipse class="cls-11" cx="75.85" cy="133.99" rx="7.43" ry="7.78"/><path class="cls-14" d="M136.58,76.43l.16,5.28s-4.61,3.79-7.64,3.62-2.58-1-2.58-1l-.06-3.68S133.72,76.48,136.58,76.43Z"/><path class="cls-15" d="M120.71,74.58c.33,5.6,3.42,7,6.06,7.79s7.47-1.55,9.21-4.51l0,0a4.92,4.92,0,0,0,.24-.45h0a12.66,12.66,0,0,0,1.15-6.12s.09-1.87,0-4.07-.37-4.72-1.09-6c-1.43-2.64-5.74-3.27-7.64-3.27s-5.52,1.4-7,3.38S120.61,72.93,120.71,74.58Z"/><path class="cls-15" d="M137.36,66.62a2.9,2.9,0,0,1,2.27,1.61c.78,1.52.21,5-2.52,5.35S137.36,66.62,137.36,66.62Z"/><path class="cls-16" d="M120.75,62a17.32,17.32,0,0,0,5.85.41,44.17,44.17,0,0,0,5.9-.58A8.26,8.26,0,0,0,133,66c.87,1.85,1.82,1.44,2.06,2.88s.17,2.23.91,2.19.68-3.28,1.13-4,2,.31,2.17.64,2.18-5.77-1.75-7.89c0,0-1.22-3-6.46-3.24S121.63,58.19,120.75,62Z"/><path class="cls-16" d="M131.91,67.33a2.31,2.31,0,0,0-2-1c-1.48,0-1.62.91-2.09.82s-.27-1.59,1.24-1.89S131.93,65.71,131.91,67.33Z"/><path class="cls-16" d="M121.07,67.3a1.93,1.93,0,0,1,1.74-1c1.27,0,1.39.91,1.79.83s.23-1.6-1.06-1.9A1.9,1.9,0,0,0,121.07,67.3Z"/><path class="cls-16" d="M128.91,68.91c0,.46.22.84.5.84s.49-.38.49-.84-.22-.85-.49-.85S128.91,68.44,128.91,68.91Z"/><ellipse class="cls-16" cx="123.68" cy="68.86" rx="0.49" ry="0.85"/><path class="cls-17" d="M120.56,71a15.34,15.34,0,0,1,6.21-.91,75.23,75.23,0,0,1,8.08,1.84s.19,5-2.48,7.09-4.09,2.42-6.23,2.2-4-1.29-4.68-2.77S120.2,72,120.56,71Z"/><polygon class="cls-18" points="136.68 69.05 134.5 71.87 134.81 72.12 136.58 69.71 136.68 69.05"/><path class="cls-18" d="M133.34,77.75a4,4,0,0,0,2.64.11l0,0a4.92,4.92,0,0,0,.24-.45,3.54,3.54,0,0,1-2.53-.15Z"/><path class="cls-19" d="M133.61,72.55a30.67,30.67,0,0,0-7.89-1.64c-3.32,0-4.75,1-4.75,1l.19,2.94s1.51-1.49,5.58-1a24,24,0,0,1,6.1,1.42Z"/><path class="cls-19" d="M132.62,75.82s-8.71-2.25-11.29-.41l.22,1.38s1.31-1.27,6.12-.39a44.53,44.53,0,0,1,4.51.88Z"/><path class="cls-20" d="M138.06,82.92s7.61,1.56,10.13,4.39a13,13,0,0,1,3,6.13L112,93s3.93-5.18,8-6.44S138.06,82.92,138.06,82.92Z"/><path class="cls-5" d="M138.06,82.92,136.8,80s-5.66,3.74-7.81,3.9l-.38,1-.44-1.15s-1.32-.33-1.65-.82-.82,2.25-.82,2.25.49,1.15,3.79,1.15S138.06,82.92,138.06,82.92Z"/><path class="cls-16" d="M100.11,83.54a12.45,12.45,0,0,0-12,9.21h2.69a9.69,9.69,0,0,1,17.91.15l3.49,0A12.42,12.42,0,0,0,100.11,83.54Z"/><path class="cls-14" d="M106.14,89.2s3.11-2.36,4.37-2.4,2,1.93,2.35,2.16a16.1,16.1,0,0,1,3.85,4.09l-8-.14s-.86-.41-1-1S105.67,90.85,106.14,89.2Z"/><path class="cls-14" d="M92.2,86.33A13.57,13.57,0,0,1,93,89.59c-.08.83-.71,1.46-1.18,1.3,0,0,.09,1.63-1,1.87l-3,0a2.11,2.11,0,0,1-.07-1.45c.27-.63.11-2,.7-2.55s.63-2,1.26-2.6A2.06,2.06,0,0,1,92.2,86.33Z"/><path class="cls-15" d="M94.79,88.18a3.21,3.21,0,0,1-.12,2.36c-.55,1.41-1.37,1.88-2,1.72s-.71-1-.2-2.2A4.78,4.78,0,0,1,94.79,88.18Z"/><path class="cls-16" d="M104.67,92.88l-8.75-.08a4.73,4.73,0,0,1,8.75.08Z"/><polygon class="cls-16" points="96.18 86.9 98.6 91.62 101.25 91.62 98.84 86.43 96.18 86.9"/><path class="cls-10" d="M177.81,140.12s35.13-43.61,36.54-39.6,1.89,33-1.41,40.78S179,146.72,177.11,146,175.69,143,177.81,140.12Z"/><rect class="cls-21" x="248.09" y="38.23" width="21.06" height="10.06"/><rect class="cls-22" x="284.08" y="31" width="13.83" height="100.27"/></g></g></svg>