<svg xmlns="http://www.w3.org/2000/svg" viewBox="0 0 197.33 200.94"><defs><style>.cls-1{fill:#f0d0c7;}.cls-2{fill:#152d40;}.cls-3{fill:#2867a4;}.cls-4{fill:#c17638;}.cls-5{fill:#e1964f;}.cls-6{fill:#151a25;}.cls-7{fill:#b2bfe1;}.cls-8{fill:#eff5e1;}.cls-9{fill:#9fafd3;}.cls-10{fill:#1c3b51;}.cls-11{fill:#a9402c;}.cls-12{fill:#d14f2d;}.cls-13{fill:#ea6f57;}</style></defs><g id="Layer_2" data-name="Layer 2"><g id="OBJECT"><path class="cls-1" d="M21.61,61.84s26.2-43.27,57.73-43.77,52.88,22.64,64,58.36,38.81,27.17,46.09,55.84S81.77,201.7,26,165,21.61,61.84,21.61,61.84Z"/><path class="cls-2" d="M127.55,80.46s6.21,5.67,11.07,23.76,6.49,39.43,14.59,44.83,20-1.89,27.27,7.83-5.4,20.53-12.42,22.42-21.6,5.13-35.38-4.05S127.55,80.46,127.55,80.46Z"/><path class="cls-3" d="M135.65,175.79H37.89S39.78,81,49.5,77,76.24,64.8,76.24,64.8l28.36,3.5s18.63,4.6,23,12.16c1.11,1.93,2.18,9.13,3.16,18.77.7,6.87,1.35,15,1.94,23.31C134.46,148.15,135.65,175.79,135.65,175.79Z"/><path class="cls-4" d="M79.89,48.86l-.41,13s11.34,9.32,18.77,8.91,6.35-2.43,6.35-2.43l.13-9S86.91,49,79.89,48.86Z"/><path class="cls-5" d="M118.87,44.31c-.81,13.77-8.4,17.11-14.88,19.13S85.64,59.63,81.34,52.38c0,0,0-.05,0-.08-.21-.36-.41-.73-.59-1.1h0a31.13,31.13,0,0,1-2.84-15s-.2-4.58,0-10,.92-11.61,2.67-14.85c3.51-6.48,14.11-8,18.77-8s13.57,3.44,17.22,8.3S119.11,40.25,118.87,44.31Z"/><path class="cls-5" d="M78,24.76a7.15,7.15,0,0,0-5.57,3.95c-1.92,3.74-.5,12.25,6.18,13.16S78,24.76,78,24.76Z"/><path class="cls-6" d="M118.77,13.31s-4.45,1.52-14.38,1a112.48,112.48,0,0,1-14.48-1.41s.91,5.67-1.21,10.23-4.46,3.54-5.07,7.08-.4,5.47-2.23,5.37-1.67-8.05-2.78-9.77-5,.76-5.32,1.57S67.94,13.21,77.61,8c0,0,3-7.4,15.85-7.95S116.6,4.05,118.77,13.31Z"/><path class="cls-6" d="M91.36,26.51a5.66,5.66,0,0,1,5-2.36c3.65,0,4,2.23,5.13,2s.68-3.91-3-4.65S91.3,22.53,91.36,26.51Z"/><path class="cls-6" d="M118,26.44a4.74,4.74,0,0,0-4.27-2.36c-3.12,0-3.41,2.23-4.39,2s-.58-3.92,2.6-4.66S118,22.46,118,26.44Z"/><path class="cls-6" d="M98.72,30.38c0,1.14-.54,2.07-1.21,2.07s-1.22-.93-1.22-2.07.55-2.08,1.22-2.08S98.72,29.23,98.72,30.38Z"/><path class="cls-6" d="M112.8,30.28c0,1.14-.54,2.07-1.22,2.07s-1.21-.93-1.21-2.07.54-2.08,1.21-2.08S112.8,29.13,112.8,30.28Z"/><path class="cls-7" d="M119.25,35.49S111,32.39,104,33.26s-19.85,4.53-19.85,4.53S83.67,50,90.22,55.21s10.06,5.94,15.32,5.4,9.93-3.18,11.48-6.82S120.12,38,119.25,35.49Z"/><polygon class="cls-8" points="79.63 30.73 85 37.67 84.24 38.28 79.89 32.35 79.63 30.73"/><path class="cls-8" d="M87.83,52.1s-3.81,1.49-6.49.28c0,0,0-.05,0-.08-.21-.36-.41-.73-.59-1.1.25.07,3.58,1.09,6.22-.36Z"/><path class="cls-9" d="M87.18,39.34s11.54-4.05,19.37-4.05c8.17,0,11.68,2.36,11.68,2.36l-.47,7.23s-3.71-3.65-13.7-2.37-15,3.51-15,3.51Z"/><path class="cls-9" d="M89.61,47.37s21.4-5.53,27.75-1l-.54,3.38s-3.24-3.11-15.06-1S90.69,51,90.69,51Z"/><path class="cls-10" d="M132.65,122.54a104.16,104.16,0,0,1-40.41,7.94c-27.75,0-40.1-11.14-40.1-11.14L57.4,98.28s20.46,12.56,44.77,10.53c16.7-1.39,25-6.52,28.54-9.58C131.41,106.1,132.06,114.22,132.65,122.54Z"/><path class="cls-2" d="M76.24,64.79l3.11-7.15s13.9,9.18,19.17,9.58l.94,2.43,1.09-2.83s3.24-.81,4-2,2,5.54,2,5.54-1.21,2.83-9.32,2.83S76.24,64.79,76.24,64.79Z"/><path class="cls-7" d="M98.92,72.62s9.73,83.39,8.92,102.22l2.83.2s-3.24-81.62-10.12-102.48Z"/><polygon class="cls-11" points="125.86 200.77 86.97 200.77 86.97 126.23 125.19 127.58 125.86 200.77"/><polygon class="cls-12" points="197.33 200.94 125.26 200.94 125.13 127.62 197.33 126.4 197.33 200.94"/><polygon class="cls-13" points="86.97 126.23 125.46 128.26 197.33 126.4 135.79 123.39 86.97 126.23"/><rect class="cls-11" x="163.74" y="152.33" width="1.82" height="47.43"/><polygon class="cls-11" points="126.34 129.47 164.68 152.29 164.68 154.45 126.47 131.23 126.34 129.47"/><polygon class="cls-11" points="196.69 128.53 167.38 151.35 167.38 153.51 196.58 130.28 196.69 128.53"/><path class="cls-2" d="M110.3,189.05c-4,7-54.55,10-71-1.34-7-4.84-9.88-18.77-10.57-34.4-.92-21,2.07-45.16,4.09-54.46A32.56,32.56,0,0,1,49.54,76.71a15,15,0,0,1,2.39,2.1c3.47,3.63,9.49,12.39,9.49,29.5,0,24-2.7,34.84-.81,39.7s5.41,5.13,4.86,10,30.25-1.08,41.05,6.21S114.35,182,110.3,189.05Z"/><path class="cls-3" d="M100,185.51s-40.23,7.56-55.62-1.35c-7.53-4.36-12.61-16.85-15.67-30.85-.92-21,2.07-45.16,4.09-54.46A32.56,32.56,0,0,1,49.54,76.71a15,15,0,0,1,2.39,2.1c-2,1-9.06,6-14.58,26-6.48,23.5.54,65.63,8.1,71.3s53.74,1.88,53.74,1.88Z"/><path class="cls-5" d="M107,169.88s5.77-1.82,6.88-3.55a20.85,20.85,0,0,1,8.61-6.38c3.55-1.21,6.38-2.93,8.41-1.92s-1.62,3.65-4.05,4.15-5.17,2.94-4.56,3.14,6.78-2.23,11.14-2.73,7.7-1,11.34,0,1.82,3.44-.1,3.74-4.15.21-5.67.41a13.17,13.17,0,0,0-3.75,1.52,55.71,55.71,0,0,1,8.71,0c3.65.4,5.17.81,5.17,2.13s-3.45,1.82-6.38,1.82a39.26,39.26,0,0,0-7.4,1.11s6.08-.1,8.91.91,2.33,2.23,0,2.74-4.75-.31-7.59.4-1.22.91.51.91,4.55.61,5.06,1.42-1.62,2.13-7.09,1.72-10.33,1.22-14,2.13-9.31,1.62-13.06.71S101.56,175.85,107,169.88Z"/></g></g></svg>