<svg xmlns="http://www.w3.org/2000/svg" viewBox="0 0 165.9 208.97"><defs><style>.cls-1{fill:#f0d0c7;}.cls-2{fill:#bfbbb8;}.cls-3{fill:#152d40;}.cls-4{fill:#2867a4;}.cls-5{fill:#d97938;}.cls-6{fill:#aa5d29;}.cls-7{fill:#c16a2f;}.cls-8{fill:#29496b;}.cls-9{fill:#a9402c;}.cls-10{fill:#d14f2d;}.cls-11{fill:#0f2330;}.cls-12{fill:#e1964f;}.cls-13{fill:#c17638;}.cls-14{fill:#151a25;}.cls-15{fill:#b2bfe1;}.cls-16{fill:#eff5e1;}.cls-17{fill:#9fafd3;}.cls-18{fill:#1c3b51;}.cls-19{fill:#275c89;}.cls-20{fill:#102533;}.cls-21{fill:#fef6d4;}.cls-22{fill:#ea6f57;}</style></defs><g id="Layer_2" data-name="Layer 2"><g id="OBJECT"><path class="cls-1" d="M3.15,80.35s6-60.43,74.63-38.59c14.4,4.59,43.07-42.33,73.49-21.57s8.2,83.47-19.34,101.91-46.12-20.48-70-9.68S22,138.24,10.3,126,3.15,80.35,3.15,80.35Z"/><path class="cls-2" d="M150.14,174.81c.76,3.83-19.57,18-60.62,26.11s-76.52,11.65-88,3.17c-3.2-2.37,5.56-12.64,46.61-20.73S149.39,171,150.14,174.81Z"/><ellipse class="cls-3" cx="126.64" cy="158.8" rx="22.35" ry="22.94"/><ellipse class="cls-4" cx="131.55" cy="159.39" rx="11.12" ry="13.71"/><path class="cls-5" d="M43.77,165.82s12.41,4.81,36.23,1.77,23.82-7.1,23.82-7.1A30.33,30.33,0,0,0,81,150.36C66.57,150.61,43.77,165.82,43.77,165.82Z"/><path class="cls-6" d="M95.46,160.24s5.32-37.5,12.92-45.86-30.91-4.06-30.91-4.06L64,160Z"/><path class="cls-5" d="M101.79,115.14S87.86,149.85,94.45,162s53.71-3.29,57.77-9.62-2.79-23.57-10.14-30.16-8.61-11.4-8.61-11.4Z"/><path class="cls-7" d="M45,165.06s36.75,2.53,47.64-1.53-3.55-14.69-24.32-12.66-31.93,11.65-31.93,11.65Z"/><path class="cls-8" d="M47.82,159.23s5.58-1.78,7.86-3.93,5.83-2.41,9.75-1.77,4.56,2,4.56,2,.89,4.69-.12,6.21-12.67,1.65-17.36,1.14S44.78,161.63,47.82,159.23Z"/><path class="cls-8" d="M81,116.66a224.4,224.4,0,0,0,36.74-.26c21.28-1.77,21.54-3.54,20-7.85s-9.63-1.77-14.7-3-36.24,2.79-36.24,2.79Z"/><path class="cls-7" d="M39.62,85.47S25,90.11,21.74,104.25c-2.55,11-5.73,31.76-3,46.75S40.5,170.57,40.5,170.57l4-83.62Z"/><rect class="cls-9" x="95.21" y="62.69" width="27.37" height="46.12"/><polygon class="cls-10" points="144.11 105.51 122.32 108.8 122.32 62.69 144.11 62.69 144.11 105.51"/><path class="cls-11" d="M75.28,89.06l-1,2.81s-20.21,2.65-27,12.54-10.77,44.27-8,46.34,8.56,2.06,11.07-.45S58,119.9,61,115.92s22.73-9.44,26.42-17S89.3,90.1,89.3,90.1Z"/><path class="cls-3" d="M111.73,88.23s2.51,5.6-4.58,17.8-22.58,11.12-26.9,14.86-4.73,31.28-8.07,33.84-10.23,1-14.56,0,8.06-48.6,11.61-53.91,15.34-7.08,15.34-7.08l.79-5.12Z"/><path class="cls-5" d="M58.83,85.68A31.48,31.48,0,0,1,73,101.93c4.23,11.4-11.52,63.69-20,67.28s-23.51,6.6-26.67-22.74,13.29-57.2,19-59.94"/><path class="cls-8" d="M42.41,82.18l-9.47-.67L24,80.87a3,3,0,0,1-2.74-3.15h0A3,3,0,0,1,24.43,75l18.4,1.31a2.94,2.94,0,0,1,2.73,3.15h0A3,3,0,0,1,42.41,82.18Z"/><path class="cls-12" d="M40.3,76.27a13.06,13.06,0,0,0-2.85-2.6,2.93,2.93,0,0,0-2.31-.2,5.49,5.49,0,0,0-2.27-.79,2,2,0,0,0-1.47.59,3.7,3.7,0,0,0-1.82-.54,1.62,1.62,0,0,0-1.08.59,2.34,2.34,0,0,0-1.92.05c-1,.49-2.71,3.1-2.22,5.56s2.66,3.1,3.2,2.9a1.16,1.16,0,0,0,.69-.59s1.08,1.38,2.12.94l1-.45s1.23.89,2,.54l.78-.34a2,2,0,0,0,1.68.59,1.89,1.89,0,0,0,1.52-.84c.3-.34-1.54-1.62-1.38-2.31C36.93,75.44,40.3,76.27,40.3,76.27Z"/><path class="cls-3" d="M79.85,38s-7.28-.64-8.46,10.14-3.34,10.42-7.87,13.47c-3.18,2.15-17,2.81-20,7.24s1.92,10.92,12.54,9.29S74,74.75,77.39,64.71,79.85,38,79.85,38Z"/><path class="cls-4" d="M76,89.5l26.72,1.19c3.77,0,11.47-.17,11.36-3.94-.38-12.39-.5-48.07-3.61-49.37-4.16-1.73-11.43-5.19-11.43-5.19l-12.12,1.5s-8,2-9.81,5.19c-.48.83-.94,3.9-1.36,8-.3,2.94-.57,6.41-.83,10-.43,6.15-.84,13.59-1.11,18.92C73.63,79.61,72.19,89.5,76,89.5Z"/><path class="cls-3" d="M79.65,8.15s-3.77,9.6-.51,14.75,5.83.77,5.83.77L81.62,8.92Z"/><path class="cls-13" d="M97.65,25.12l.17,5.49s-4.8,4-7.94,3.77-2.69-1-2.69-1l0-3.83S94.68,25.18,97.65,25.12Z"/><path class="cls-12" d="M81.15,23.2c.34,5.83,3.56,7.24,6.3,8.1s7.77-1.61,9.59-4.69c0,0,0,0,0,0a5.2,5.2,0,0,0,.25-.46h0a13.2,13.2,0,0,0,1.2-6.37s.09-1.94,0-4.23-.39-4.91-1.13-6.28c-1.49-2.75-6-3.4-8-3.4s-5.74,1.45-7.28,3.51S81.05,21.48,81.15,23.2Z"/><path class="cls-12" d="M98.47,14.92a3.05,3.05,0,0,1,2.36,1.67c.81,1.59.21,5.19-2.62,5.58S98.47,14.92,98.47,14.92Z"/><path class="cls-14" d="M81.19,10.08a18.28,18.28,0,0,0,6.09.43,49.15,49.15,0,0,0,6.13-.6,8.5,8.5,0,0,0,.51,4.33c.9,1.93,1.89,1.5,2.15,3s.17,2.31.94,2.27.71-3.41,1.18-4.14,2.1.32,2.25.67,2.27-6-1.82-8.21c0,0-1.27-3.13-6.71-3.37S82.11,6.16,81.19,10.08Z"/><path class="cls-14" d="M92.8,15.67a2.41,2.41,0,0,0-2.12-1c-1.54,0-1.69.94-2.17.85s-.29-1.65,1.28-2S92.82,14,92.8,15.67Z"/><path class="cls-14" d="M81.53,15.64a2,2,0,0,1,1.81-1c1.32,0,1.44.94,1.85.85s.25-1.65-1.09-2A2,2,0,0,0,81.53,15.64Z"/><path class="cls-14" d="M89.68,17.3c0,.49.23.88.51.88s.52-.39.52-.88-.23-.88-.52-.88S89.68,16.82,89.68,17.3Z"/><path class="cls-14" d="M83.72,17.26c0,.48.23.88.52.88s.51-.4.51-.88-.23-.88-.51-.88S83.72,16.77,83.72,17.26Z"/><path class="cls-15" d="M81,19.47a16,16,0,0,1,6.46-.95,79.29,79.29,0,0,1,8.4,1.92s.2,5.17-2.57,7.37S89,30.33,86.79,30.1s-4.2-1.35-4.85-2.89S80.62,20.52,81,19.47Z"/><polygon class="cls-16" points="97.76 17.45 95.49 20.39 95.81 20.64 97.65 18.14 97.76 17.45"/><path class="cls-16" d="M94.29,26.5a4.18,4.18,0,0,0,2.75.11s0,0,0,0a5.2,5.2,0,0,0,.25-.46A3.72,3.72,0,0,1,94.67,26Z"/><path class="cls-17" d="M94.57,21.1s-4.89-1.72-8.2-1.72c-3.46,0-5,1-5,1l.2,3.06s1.57-1.54,5.8-1a25,25,0,0,1,6.35,1.48Z"/><path class="cls-17" d="M93.54,24.5s-9.06-2.35-11.75-.43L82,25.5s1.37-1.32,6.37-.4a45.12,45.12,0,0,1,4.69.91Z"/><path class="cls-4" d="M78.56,10.09c0,5.35,12.74,2.88,15.28,2.33l.44-.1s.63,9.89,2.11,12.23c.77,1.2,3.1,1.67,5.3.69h0c2.09-.93,4-3.19,4.41-7.36C106.85,9.29,103.65,2,95.48.43S78.51,1.58,78.56,10.09Z"/><path class="cls-3" d="M93.84,12.42l.44-.1s.63,9.89,2.11,12.23c.77,1.2,3.1,1.67,5.3.69-.68.11-2.54.28-3.46-1.2-1.15-1.83-2.81-12.37-2.81-12.37l-1.54-.61Z"/><path class="cls-18" d="M95.45,11.83a1.31,1.31,0,0,0-.75-1.11c-.73-.3-7.85-2.1-10.85-1.93s-6.51,1.46-7.12,2.62,7,2.27,11.79,2.06S95.45,11.83,95.45,11.83Z"/><path class="cls-18" d="M100.65,15.78c0,2.32,1,4.2,2.34,4.2s2.34-1.88,2.34-4.2-1-4.2-2.34-4.2S100.65,13.46,100.65,15.78Z"/><path class="cls-19" d="M95.65,10s-8.38-4.32-16.24-.73a10.49,10.49,0,0,1,2.84-4.32c1.85-1.4,4.78-2.57,9-.84A7.31,7.31,0,0,1,95.65,10Z"/><path class="cls-18" d="M75.08,56.92a44.57,44.57,0,0,0,17.28,3.4c11.86,0,17.14-4.77,17.14-4.77l.06-11.1s-11.06,7.47-21.45,6.6C81,50.46,77.43,48.26,75.91,47,75.61,49.89,75.33,53.36,75.08,56.92Z"/><path class="cls-7" d="M27.65,74.45s-1.11,3.23,0,4.89-.15,1.2-.78.26S26.22,76.77,27.65,74.45Z"/><path class="cls-7" d="M30.63,74.63s-1.12,3.22,0,4.89-.15,1.19-.78.26S29.19,76.94,30.63,74.63Z"/><path class="cls-7" d="M33.85,75.3s-1.12,3.22,0,4.89-.14,1.2-.78.26S32.42,77.61,33.85,75.3Z"/><path class="cls-3" d="M99.2,32.23l-1.33-3s-6,3.92-8.2,4.09l-.4,1-.46-1.21s-1.39-.35-1.74-.87-.86,2.37-.86,2.37.52,1.21,4,1.21S99.2,32.23,99.2,32.23Z"/><path class="cls-15" d="M89.5,35.58s-4.33,39.18-4,47.23H84.3s1.56-38.35,4.51-47.27Z"/><path class="cls-3" d="M75.52,77.9s-.1-1.58,3-2.76,17.81.3,21.55-1.47,4.13-.94,5.11-1.14.3-11.65.89-17.26,2.31-16.23,4-17.91c0,0,1.59-2,6.2,4,3.69,4.87,1.77,40.43-6,43.83C99.71,89.8,82.8,90.39,79.11,89.36A5.75,5.75,0,0,1,75,84.78Z"/><path class="cls-20" d="M84.06,82.64a5.39,5.39,0,1,1-5.39-5.53A5.46,5.46,0,0,1,84.06,82.64Z"/><path class="cls-5" d="M32.73,71.6s2.06-4.77,6.59-5.46a16.13,16.13,0,0,1,14.21,5.51c3.64,4.43,14.17,5.8,16.73,7.67s1.67,6.79-1.57,7.87S55.21,85.91,51,88.08s-11.86,1.13-15.4-.35S28.69,78.29,32.73,71.6Z"/><path class="cls-8" d="M81.27,86.88l-8.3-1-7.83-1a2.73,2.73,0,0,1-2.22-3.16h0a2.73,2.73,0,0,1,2.94-2.5l16.13,2a2.74,2.74,0,0,1,2.22,3.16h0A2.73,2.73,0,0,1,81.27,86.88Z"/><path class="cls-12" d="M82.11,81.19a13,13,0,0,0-2.85-2.61A3,3,0,0,0,77,78.39a5.48,5.48,0,0,0-2.26-.79,2,2,0,0,0-1.48.59,3.7,3.7,0,0,0-1.82-.54,1.62,1.62,0,0,0-1.08.59,2.34,2.34,0,0,0-1.92.05c-1,.49-2.71,3.1-2.21,5.56s2.65,3.1,3.19,2.9a1.12,1.12,0,0,0,.69-.59s1.08,1.38,2.12.93l1-.44s1.23.89,2,.54l.78-.34a2,2,0,0,0,1.68.59,1.89,1.89,0,0,0,1.52-.84c.3-.34-1.54-1.62-1.38-2.31C78.74,80.36,82.11,81.19,82.11,81.19Z"/><circle class="cls-21" cx="40.3" cy="77.11" r="7.97" transform="translate(-44 98.62) rotate(-76.72)"/><ellipse class="cls-3" cx="28.37" cy="180.71" rx="23.95" ry="24.58"/><ellipse class="cls-4" cx="33.64" cy="181.35" rx="11.92" ry="14.69"/><path class="cls-8" d="M38.32,158.52s-10.21,27.88-7.44,31.07,6.17,3.2,8.3-4,5.74-23.2,5.74-23.2Z"/><path class="cls-7" d="M2.09,171.39a10.18,10.18,0,0,1,7.6-2.53c4.68.38,4.56,3.54,8.36,3.54s4.69-6.33,15.71-7.85,13.3,4.69,18.37,5.83,1-7.48-10.52-14.07-23.94-3.8-32.68,2.16S-2.22,172.28,2.09,171.39Z"/><path class="cls-21" d="M44.15,96.64s8.87-1.9,11.27-1-4.3,3,.64,3.54,13.17,2,13.81,3.3S53.78,101.58,52,101.2s0-3.67,0-3.67H44.15C43.64,97.53,44.15,96.64,44.15,96.64Z"/><path class="cls-7" d="M55.49,159.16S69,126.29,68,116.4s-1.9-1.14-6.27,15.21S51.31,162.2,55.49,159.16Z"/><path class="cls-7" d="M69.65,79.58s-1.11,3.23,0,4.89-.15,1.2-.78.26S68.22,81.9,69.65,79.58Z"/><path class="cls-7" d="M72.63,79.76s-1.12,3.22,0,4.89-.15,1.2-.78.26S71.19,82.07,72.63,79.76Z"/><path class="cls-7" d="M75.85,80.43s-1.12,3.23,0,4.89-.14,1.2-.78.26S74.42,82.74,75.85,80.43Z"/><path class="cls-7" d="M140.82,128.31s-21.16,4.94-22.18,6.72S144.74,131.1,140.82,128.31Z"/><path class="cls-7" d="M142.21,134s-21.16,5-22.17,6.72S146.14,136.8,142.21,134Z"/><path class="cls-7" d="M143,139.46s-21.16,4.94-22.17,6.72S146.9,142.25,143,139.46Z"/><polygon class="cls-22" points="136.38 106.65 132.5 107.23 132.45 62.81 136.38 62.81 136.38 106.65"/></g></g></svg>